<?xml version="1.0"?>
<svg width="30" height="30" xmlns="http://www.w3.org/2000/svg" xmlns:svg="http://www.w3.org/2000/svg">
 <g class="layer" display="inline">
  <title>Layer 1</title>
  <g id="categories">
   <path d="m27,7l-3.94,0l1,-4l-2.06,0.25l-1,3.75l-8,0l0.4,4.02c-0.13,-0.01 -0.26,-0.02 -0.4,-0.02l-2,0c-3.31,0 -6,2.69 -6,6c-0.26,0 -0.52,0.05 -0.77,0.15c-0.24,0.1 -0.46,0.25 -0.64,0.44c-0.19,0.18 -0.34,0.4 -0.44,0.64c-0.1,0.25 -0.15,0.51 -0.15,0.77l0,2c0,0.53 0.21,1.04 0.59,1.41c0.37,0.38 0.88,0.59 1.41,0.59c0,2.21 1.79,4 4,4l16,0l2,-20zm-16,6l2,0c2.21,0 4,1.79 4,4l-10,0c0,-2.21 1.79,-4 4,-4zm-6.44,6l14.44,0l0.81,2l-14.81,0l-0.44,-2zm4.44,6c-0.53,0 -1.04,-0.21 -1.41,-0.59c-0.38,-0.37 -0.96,-1.32 -0.96,-1.85l10.38,0.44l0,0c0,0.26 -0.05,0.52 -0.15,0.77c-0.1,0.24 -0.25,0.46 -0.44,0.64c-0.18,0.19 -0.4,0.34 -0.64,0.44c-0.25,0.1 -0.51,0.15 -0.77,0.15l-6,0zm14.19,0l-4.74,0c0.34,-0.59 0.55,-1.27 0.55,-2l0,0l0,0c0.53,0 1.04,-0.21 1.41,-0.59c0.38,-0.37 0.59,-0.88 0.59,-1.41l0,-2c0,-0.26 -0.05,-0.52 -0.15,-0.77c-0.1,-0.24 -0.25,-0.46 -0.44,-0.64c-0.18,-0.19 -0.4,-0.34 -0.64,-0.44c-0.25,-0.1 -0.51,-0.15 -0.77,-0.15c0,-2.43 -1.45,-4.53 -3.54,-5.47l-0.63,-3.09l9.95,0.56l-1.6,16z" fill="#2a9ae5" id="Vector"/>
  </g>
 </g>
</svg>